# xmcd CD database file
#
# Track frame offsets:
#	150
#	19952
#	39757
#	54205
#
# Disc length: 984 seconds
#
# Revision: 0
# Processed by: cddbd v1.5.1PL2 Copyright (c) Steve Scherf et al.
# Submitted via: CDex 1.51
#
DISCID=2303d604
DTITLE=HARCO - 世界でいちばん頑張ってる君に
DYEAR=2005
DGENRE=JPop
TTITLE0=世界でいちばん頑張ってる君に
TTITLE1=ソングバード
TTITLE2=Dental Dance
TTITLE3=世界でいちばん頑張ってる君に(without vocal)
EXTD=YEAR: 2005
EXTT0=
EXTT1=
EXTT2=
EXTT3=
PLAYORDER=
